<?xml version="1.0" encoding="utf-8"?>
<!-- Generator: Adobe Illustrator 23.0.3, SVG Export Plug-In . SVG Version: 6.00 Build 0)  -->
<svg version="1.2" baseProfile="tiny" id="Layer_1" xmlns="http://www.w3.org/2000/svg" xmlns:xlink="http://www.w3.org/1999/xlink"
	 x="0px" y="0px" width="140px" height="30px" viewBox="0 0 588 125" xml:space="preserve">
<g>
	<path d="M480.1,62.7l-0.9-0.4c-10.5-4.8-19.6-9-19.6-20.1c0-11,8.1-18.7,19.7-18.7c6.4,0,14.3,3.4,17,13l0.7,2.5l8.2-3l-0.9-2.3
		c-4.2-11.3-15.6-16.3-24.9-16.3c-15.8,0-28.1,11-28.1,25.1c0,20.7,15.3,27.5,27.6,33l0.9,0.4c10.7,4.7,19.9,8.8,19.9,20.4
		c0,12.9-9,22.3-21.3,22.3c-5.9,0-11.5-2.5-15.5-6.8c-4.6-5-6.8-12.1-6.1-20.1l0.2-2.6h-8.6l-0.2,2.2c-0.7,9.5,1.9,17.7,7.6,23.9
		c5.6,6.1,13.8,9.6,22.4,9.6c14.4,0,30-10.8,30-28.1C508.1,75.6,492.5,68.4,480.1,62.7z"/>
	<path d="M278.3,19.6l2.6,7l-38.2,95.9h9.2l16.7-47.1h30.9l17.9,47.1h11.7L289,19.6H278.3z M284.1,34.8l13.1,34.6h-26.4L284.1,34.8z
		"/>
	<path d="M127.3,19.6l2.6,7l-38.2,95.9h9.2l16.7-47.1h30.9l17.9,47.1h11.7L138,19.6H127.3z M133.1,34.8l13.1,34.6h-26.4L133.1,34.8z
		"/>
	<polygon points="246.6,19.6 174.8,19.6 174.8,27.3 205.2,25.3 205.2,122.5 216.3,122.5 216.3,25.3 246.6,27.3 	"/>
	<polygon points="516.1,19.6 516.1,27.3 546.5,25.3 546.5,122.5 557.6,122.5 557.6,25.3 588,27.3 588,19.6 	"/>
	<polygon points="355.8,22 355.8,19.6 344.7,19.6 344.7,122.5 402.8,122.5 405.5,113.8 355.8,116.9 	"/>
	<rect x="420.9" y="19.6" width="10.4" height="102.9"/>
	<polygon points="67.4,103.2 9.7,19.6 0,19.6 0,122.5 8.7,122.5 6.1,33.8 67.5,122.5 73.7,122.5 73.7,19.6 65,19.6 	"/>
	<rect x="116.5" y="0.3" width="36.8" height="6"/>
</g>
</svg>
